<svg id="Layer_1" enable-background="new 0 0 256 256" height="512" viewBox="0 0 256 256" width="512" xmlns="http://www.w3.org/2000/svg"><g><path d="m185.088 226.367h-114.176v-65.307c0-15.862 12.859-28.72 28.72-28.72h56.736c15.862 0 28.72 12.859 28.72 28.72z" fill="#cecece"/><g><path d="m106.132 132.339h-6.5c-15.862 0-28.72 12.859-28.72 28.72v65.307h6.5v-65.307c0-15.861 12.858-28.72 28.72-28.72z" fill="#afafaf"/></g><g><path d="m149.868 132.339h6.5c15.862 0 28.72 12.859 28.72 28.72v65.307h-6.5v-65.307c0-15.861-12.858-28.72-28.72-28.72z" fill="#e2e2e2"/></g><circle cx="92.926" cy="75.003" fill="#f87023" r="8.5"/><circle cx="161.074" cy="75.003" fill="#f8af23" r="8.5"/><path d="m129.671 142.973h-3.343c-7.732 0-14-6.268-14-14v-23.491c0-7.732 6.268-14 14-14h3.343c7.732 0 14 6.268 14 14v23.491c0 7.732-6.268 14-14 14z" fill="#f8af23"/><g><path d="m118.829 128.973v-23.491c0-7.198 5.434-13.12 12.421-13.905-.519-.058-1.044-.095-1.579-.095h-3.343c-7.732 0-14 6.268-14 14v23.491c0 7.732 6.268 14 14 14h3.343c.534 0 1.06-.036 1.579-.095-6.988-.785-12.421-6.707-12.421-13.905z" fill="#f87023"/></g><path d="m128 118.882c-19.371 0-35.074-15.703-35.074-35.074v-16.034c0-19.371 15.703-35.074 35.074-35.074 19.371 0 35.074 15.703 35.074 35.074v16.034c0 19.371-15.703 35.074-35.074 35.074z" fill="#f8af23"/><g><path d="m99.426 83.808v-16.034c0-18.274 13.978-33.278 31.824-34.918-1.071-.098-2.154-.156-3.25-.156-19.371 0-35.074 15.703-35.074 35.074v16.034c0 19.371 15.703 35.074 35.074 35.074 1.096 0 2.179-.057 3.25-.156-17.846-1.641-31.824-16.644-31.824-34.918z" fill="#f87023"/></g><path d="m112.329 124.97 15.671 18.003-12.966 8.116-6.996-18.75z" fill="#63bce7"/><path d="m143.671 124.97-15.671 18.003 12.966 8.116 6.996-18.75z" fill="#63bce7"/><path d="m108.038 132.339 19.962 34.141v36.1l-17.63-30.503h7.649l-12.686-11.194 1.144-28.537z" fill="#cecece"/><path d="m147.962 132.339-19.962 34.141v36.1l17.63-30.503h-7.649l12.686-11.194-1.144-28.537z" fill="#cecece"/><path d="m163.074 75.791h-3.214l-3.213-17.322 6.427-2z" fill="#9e9e9e"/><path d="m92.926 75.791h4.595l5.375-16.072s36.125 24.125 65.875-4.25c22.888-21.83-14.228-32.415-32.567-36.136-5.783-1.173-11.769-.804-17.374 1.043l-21.46 7.07c-3.59 1.183-6.015 4.535-6.015 8.315-5.026 5.026-6.868 12.415-4.791 19.212z" fill="#9e9e9e"/><g><path d="m97.855 35.76c0-3.78 2.426-7.132 6.015-8.315l21.46-7.07c2.416-.796 4.904-1.3 7.415-1.542-4.683-.452-9.421.061-13.915 1.542l-21.46 7.07c-3.59 1.183-6.015 4.535-6.015 8.315-5.026 5.026-6.868 12.415-4.791 19.212l6.362 20.819h4.595l.995-2.976-5.453-17.843c-2.077-6.797-.234-14.186 4.792-19.212z" fill="#707070"/></g><g fill="#3f3679"><circle cx="118.094" cy="81.612" r="3.125"/><circle cx="144.406" cy="81.612" r="3.125"/></g><path d="m70.914 226.367c-8.284 0-15-6.716-15-15v-87.679h30v87.679c0 8.284-6.716 15-15 15z" fill="#cecece"/><g><path d="m62.414 211.367v-87.679h-6.5v87.679c0 8.284 6.716 15 15 15 1.117 0 2.202-.131 3.25-.363-6.72-1.486-11.75-7.47-11.75-14.637z" fill="#afafaf"/></g><path d="m85.914 123.688v-6.853c0-6.46-5.237-11.696-11.696-11.696h-9.686c-2.133 0-3.862 1.729-3.862 3.862h-11.388c-2.724 0-5.43-.439-8.015-1.301l-3.945-1.315c-3.027-1.009-6.153 1.244-6.153 4.435 0 1.925 1.18 3.653 2.972 4.354l21.773 8.515h30z" fill="#f8af23"/><g><path d="m37.669 110.819c0-1.545.737-2.866 1.836-3.707l-2.183-.728c-3.027-1.009-6.153 1.244-6.153 4.435 0 1.925 1.18 3.653 2.972 4.354l21.773 8.515h6.5l-21.773-8.515c-1.792-.701-2.972-2.429-2.972-4.354z" fill="#f87023"/></g><path d="m185.086 226.367c8.284 0 15-6.716 15-15v-87.679h-30v87.679c0 8.284 6.716 15 15 15z" fill="#cecece"/><g><path d="m193.586 123.688v87.679c0 7.167-5.03 13.151-11.75 14.637 1.048.232 2.133.363 3.25.363 8.284 0 15-6.716 15-15v-87.679z" fill="#e2e2e2"/></g><path d="m170.086 123.688v-6.853c0-6.46 5.237-11.696 11.696-11.696h9.686c2.133 0 3.862 1.729 3.862 3.862h11.387c2.724 0 5.43-.439 8.015-1.301l3.945-1.315c3.027-1.009 6.153 1.244 6.153 4.435 0 1.925-1.18 3.653-2.972 4.354l-21.773 8.515h-29.999z" fill="#f8af23"/><g><path d="m218.331 110.819c0-1.545-.737-2.866-1.836-3.707l2.183-.728c3.027-1.009 6.153 1.244 6.153 4.435 0 1.925-1.18 3.653-2.972 4.354l-21.773 8.515h-6.5l21.773-8.515c1.792-.701 2.972-2.429 2.972-4.354z" fill="#f8d323"/></g><circle cx="209.877" cy="62.204" fill="#63bce7" r="31.546"/><g><path d="m209.877 30.659c-1.097 0-2.181.057-3.25.166 15.895 1.627 28.296 15.055 28.296 31.38s-12.4 29.753-28.296 31.38c1.069.109 2.153.166 3.25.166 17.422 0 31.546-14.123 31.546-31.546s-14.124-31.546-31.546-31.546z" fill="#63e2e7"/></g><circle cx="46.123" cy="62.204" fill="#f46275" r="31.546"/><g><path d="m21.077 62.204c0-16.325 12.401-29.753 28.296-31.38-1.068-.109-2.153-.166-3.25-.166-17.422 0-31.546 14.123-31.546 31.546s14.124 31.546 31.546 31.546c1.097 0 2.182-.057 3.25-.166-15.895-1.627-28.296-15.055-28.296-31.38z" fill="#f43075"/></g><path d="m219.025 48.239-14.231 16.245-4.664-3.768c-2.077-1.676-5.12-1.357-6.798.713-1.68 2.066-1.362 5.1.711 6.777l11.905 9.611 20.359-23.238c1.756-2.004 1.55-5.049-.462-6.8-2.008-1.747-5.066-1.544-6.82.46z" fill="#f8af23"/><path d="m53.091 62.204 5.866-6.696c1.907-2.177 1.689-5.489-.488-7.396-2.176-1.907-5.489-1.69-7.396.489l-4.95 5.65-4.95-5.65c-1.907-2.177-5.219-2.395-7.396-.489-2.177 1.907-2.395 5.219-.488 7.396l5.866 6.696-5.866 6.696c-1.907 2.177-1.689 5.489.488 7.396.995.871 2.226 1.299 3.452 1.299 1.457 0 2.908-.605 3.944-1.788l4.95-5.65 4.95 5.65c1.036 1.183 2.487 1.788 3.944 1.788 1.227 0 2.458-.428 3.452-1.299 2.177-1.907 2.395-5.219.488-7.396z" fill="#cecece"/><g fill="#3f3679"><path d="m27.323 235.84h-18.003c-.828 0-1.5.671-1.5 1.5s.672 1.5 1.5 1.5h18.003c.828 0 1.5-.671 1.5-1.5s-.672-1.5-1.5-1.5z"/><path d="m246.68 235.84h-18.003c-.828 0-1.5.671-1.5 1.5s.672 1.5 1.5 1.5h18.003c.828 0 1.5-.671 1.5-1.5s-.672-1.5-1.5-1.5z"/><path d="m218.479 235.84h-180.958c-.828 0-1.5.671-1.5 1.5s.672 1.5 1.5 1.5h180.959c.828 0 1.5-.671 1.5-1.5s-.672-1.5-1.501-1.5z"/><path d="m9.32 227.867h237.36c.828 0 1.5-.671 1.5-1.5s-.672-1.5-1.5-1.5h-52.137c4.252-2.988 7.043-7.92 7.043-13.5v-86.655l20.818-8.142c2.386-.933 3.927-3.19 3.927-5.75 0-2.009-.935-3.834-2.564-5.009s-3.659-1.484-5.563-.849l-3.945 1.315c-2.435.812-4.972 1.224-7.54 1.224h-10.101c-.65-2.229-2.712-3.862-5.148-3.862h-9.687c-7.276 0-13.196 5.92-13.196 13.196v6.854 9.728c-3.826-1.688-8.011-2.576-12.218-2.576h-7.544l-3.653-6.273v-8.477c11.378-6.077 19.18-17.991 19.389-31.718 3.886-1.437 6.514-5.131 6.514-9.367 0-4.16-2.644-7.918-6.5-9.364v-4.656c1.761-1.315 3.508-2.784 5.232-4.429 6.367-6.073 8.804-11.898 7.242-17.313-1.838-6.372-10.363-15.253-40.546-21.378-6.01-1.219-12.28-.842-18.142 1.088l-21.46 7.07c-4.015 1.322-6.774 4.937-7.028 9.112-5.11 5.414-6.93 13.126-4.744 20.278l3.271 10.701c-3.338 1.7-5.474 5.101-5.474 8.888 0 5.013 3.711 9.163 8.527 9.879.393 13.51 8.14 25.205 19.376 31.206v8.477l-3.653 6.273h-7.544c-4.209 0-8.391.892-12.218 2.581v-9.732-6.854c0-7.276-5.92-13.196-13.196-13.196h-9.687c-2.437 0-4.498 1.633-5.148 3.862h-10.101c-2.568 0-5.105-.412-7.54-1.224l-3.945-1.315c-1.907-.636-3.935-.326-5.563.849-1.63 1.175-2.564 3-2.564 5.009 0 2.561 1.541 4.818 3.927 5.75l20.818 8.142v86.655c0 5.58 2.791 10.512 7.043 13.5h-52.138c-.828 0-1.5.671-1.5 1.5s.672 1.502 1.5 1.502zm109.691-56.914-12.15-10.722 1.011-25.205 18.629 31.861v30.101l-13.53-23.41h5.049c.624 0 1.183-.386 1.403-.969.22-.585.056-1.244-.412-1.656zm-6.439-43.419 13.144 15.1-7.263 4.546-8.678-14.842zm15.428 17.209 8.032 5.027-8.032 13.738-8.032-13.737zm15.428-17.209 2.798 4.803-8.678 14.842-7.263-4.546zm-6.85 45.074c.221.583.779.969 1.403.969h5.049l-13.53 23.41v-30.101l18.629-31.861 1.011 25.205-12.15 10.722c-.469.413-.633 1.072-.412 1.656zm62.008 38.759c0 7.444-6.056 13.5-13.5 13.5s-13.5-6.056-13.5-13.5v-86.179h27zm-27-94.533c0-5.622 4.574-10.196 10.196-10.196h9.687c.73 0 1.376.34 1.81.862h-10.531c-.828 0-1.5.671-1.5 1.5s.672 1.5 1.5 1.5h12.584 1.208 10.179c2.892 0 5.748-.463 8.489-1.378l3.945-1.315c.979-.327 2.023-.167 2.86.437.838.604 1.318 1.542 1.318 2.575 0 1.316-.793 2.477-2.019 2.957l-21.51 8.412h-28.217v-5.354zm-3 19.904v74.629c0 5.58 2.791 10.512 7.043 13.5h-46.129v-21.884l17.429-30.155c.269-.464.269-1.036 0-1.5-.268-.464-.763-.75-1.299-.75h-3.682l9.711-8.569c.339-.298.524-.733.507-1.185l-1.082-26.984h5.284c4.303-.001 8.41.979 12.218 2.898zm-.512-61.735c0 2.559-1.379 4.821-3.5 6.045v-5.257-6.823c2.112 1.235 3.5 3.523 3.5 6.035zm-6.5-7.229v6.517h-.467l-1.825-9.84c.766-.436 1.53-.9 2.292-1.39zm-63.734-38.903 21.461-7.07c5.365-1.769 11.11-2.113 16.606-.998 10.443 2.119 35.078 8.239 38.259 19.269 1.228 4.256-.936 9.071-6.43 14.311-11.939 11.388-26.296 15.56-42.672 12.398-11.038-2.131-19.319-7.046-21.002-8.099l-11.184-23.216c.122-3.015 2.074-5.645 4.962-6.595zm-6.856 9.577 10.297 21.373-4.839 14.47h-2.405l-6.038-19.757c-1.708-5.584-.554-11.564 2.985-16.086zm-5.058 36.555c0-2.474 1.293-4.724 3.363-5.982l2.151 7.037c-.004.043-.013.085-.013.13v5.649c-3.142-.689-5.501-3.489-5.501-6.834zm8.5 8.805v-6.517h3.096c.646 0 1.218-.413 1.423-1.024l4.782-14.299c6.331 3.614 29.714 15.167 52.776 3.949l1.883 10.149c.132.711.752 1.227 1.475 1.227h1.714v6.021.007.488c0 18.513-15.062 33.574-33.574 33.574s-33.575-15.063-33.575-33.575zm33.574 36.574c5.022 0 9.81-1.019 14.171-2.858v6.884l-14.171 16.28-14.171-16.28v-6.884c4.361 1.839 9.149 2.858 14.171 2.858zm-28.368 13.457h5.284l-1.082 26.984c-.018.451.168.886.507 1.185l9.711 8.569h-3.682c-.536 0-1.031.286-1.299.75-.269.464-.269 1.036 0 1.5l17.429 30.155v21.884h-46.129c4.252-2.988 7.043-7.92 7.043-13.5v-74.626c3.765-1.893 7.974-2.901 12.218-2.901zm-66.963-23.02c0-1.033.48-1.972 1.318-2.575.838-.604 1.882-.763 2.86-.437l3.945 1.315c2.741.915 5.598 1.378 8.489 1.378h10.179 1.208 12.584c.828 0 1.5-.671 1.5-1.5s-.672-1.5-1.5-1.5h-10.531c.434-.522 1.079-.862 1.81-.862h9.687c5.622 0 10.196 4.574 10.196 10.196v5.354h-28.217l-21.51-8.412c-1.225-.48-2.018-1.64-2.018-2.957zm24.745 100.548v-86.179h27v86.179c0 7.444-6.056 13.5-13.5 13.5s-13.5-6.056-13.5-13.5z"/><path d="m124.281 73.503h-12.375c-.828 0-1.5.671-1.5 1.5s.672 1.5 1.5 1.5h12.375c.828 0 1.5-.671 1.5-1.5s-.672-1.5-1.5-1.5z"/><path d="m138.219 76.503h12.375c.828 0 1.5-.671 1.5-1.5s-.672-1.5-1.5-1.5h-12.375c-.828 0-1.5.671-1.5 1.5s.672 1.5 1.5 1.5z"/><path d="m130.396 97.344h3.719c.464 0 .901-.215 1.186-.582s.383-.844.267-1.293l-2.865-11.106c-.206-.803-1.022-1.283-1.827-1.078-.802.207-1.284 1.025-1.077 1.827l2.381 9.232h-1.782c-.828 0-1.5.671-1.5 1.5s.67 1.5 1.498 1.5z"/><path d="m136.479 106.243c.61-.56.651-1.509.092-2.119-.56-.611-1.509-.651-2.119-.092-1.762 1.614-4.641 1.614-6.402 0-.61-.56-1.559-.52-2.119.092-.56.61-.519 1.56.092 2.119 1.436 1.316 3.292 2.041 5.229 2.041s3.791-.724 5.227-2.041z"/><path d="m209.877 95.25c18.222 0 33.046-14.824 33.046-33.045 0-18.222-14.824-33.046-33.046-33.046s-33.046 14.824-33.046 33.046c0 18.221 14.824 33.045 33.046 33.045zm0-63.091c16.567 0 30.046 13.479 30.046 30.046s-13.479 30.045-30.046 30.045-30.046-13.479-30.046-30.045c0-16.568 13.479-30.046 30.046-30.046z"/><path d="m46.123 95.25c18.222 0 33.046-14.824 33.046-33.045 0-18.222-14.824-33.046-33.046-33.046s-33.046 14.824-33.046 33.046c0 18.221 14.824 33.045 33.046 33.045zm0-63.091c16.567 0 30.046 13.479 30.046 30.046s-13.479 30.045-30.046 30.045-30.046-13.479-30.046-30.045c0-16.568 13.479-30.046 30.046-30.046z"/><path d="m193.102 69.373 11.904 9.612c.277.224.61.333.941.333.418 0 .833-.174 1.129-.512l20.358-23.237c1.114-1.271 1.665-2.898 1.551-4.583-.113-1.686-.879-3.226-2.155-4.337-2.633-2.291-6.639-2.02-8.933.603l-13.282 15.161-3.543-2.862c-2.716-2.193-6.71-1.771-8.904.934-1.064 1.31-1.555 2.955-1.38 4.633.176 1.679.997 3.19 2.314 4.255zm1.395-6.999c.657-.81 1.621-1.231 2.594-1.231.737 0 1.479.242 2.097.74l4.664 3.768c.628.506 1.54.427 2.07-.179l14.231-16.245h.001c1.209-1.381 3.319-1.522 4.706-.316.67.584 1.072 1.392 1.132 2.276.06.883-.229 1.737-.813 2.404l-19.409 22.154-10.782-8.706c-.691-.559-1.123-1.353-1.215-2.234-.092-.88.165-1.742.724-2.431z"/><path d="m37.161 62.205-5 5.708c-2.449 2.796-2.168 7.063.627 9.513 1.23 1.077 2.808 1.67 4.441 1.67 1.944 0 3.793-.838 5.071-2.3l3.822-4.362 3.821 4.361c1.279 1.462 3.128 2.3 5.072 2.3 1.634 0 3.21-.593 4.44-1.67 2.796-2.449 3.078-6.717.628-9.513l-5-5.708 5-5.708c1.187-1.354 1.775-3.089 1.656-4.886-.118-1.797-.93-3.44-2.284-4.626-1.354-1.187-3.092-1.782-4.886-1.656-1.797.118-3.44.93-4.626 2.285l-3.822 4.362-3.821-4.361c-2.448-2.796-6.716-3.079-9.514-.629-1.354 1.187-2.165 2.83-2.283 4.627-.119 1.796.47 3.532 1.656 4.886zm-2.396-12.964c1.552-1.359 3.92-1.204 5.28.348l4.95 5.65c.568.65 1.688.65 2.256 0l4.951-5.65c.658-.751 1.569-1.202 2.566-1.268.991-.062 1.96.261 2.712.919s1.202 1.57 1.268 2.567c.065.997-.261 1.96-.919 2.712l-5.866 6.696c-.496.565-.496 1.411 0 1.977l5.866 6.696c1.359 1.552 1.203 3.92-.349 5.28-.683.598-1.558.927-2.464.927-1.079 0-2.105-.465-2.815-1.276l-4.95-5.65c-.284-.325-.695-.512-1.128-.512s-.844.187-1.128.512l-4.951 5.65c-.709.811-1.735 1.276-2.814 1.276-.906 0-1.782-.33-2.465-.927-1.551-1.359-1.707-3.728-.348-5.28l5.866-6.696c.496-.565.496-1.411 0-1.977l-5.866-6.696c-1.359-1.551-1.203-3.919.348-5.278z"/></g></g></svg>