<?xml version="1.0" encoding="UTF-8"?>
<svg xmlns="http://www.w3.org/2000/svg" xmlns:xlink="http://www.w3.org/1999/xlink" viewBox="0 0 50 50" version="1.1" width="50px" height="50px">
<g id="surface1">
<path style=" " d="M 24.875 3 C 24.765625 3.015625 24.660156 3.046875 24.5625 3.09375 L 0.5625 15.09375 C 0.0625 15.335938 -0.148438 15.9375 0.09375 16.4375 C 0.335938 16.9375 0.9375 17.148438 1.4375 16.90625 L 25 5.125 L 48.5625 16.90625 C 49.0625 17.148438 49.664063 16.9375 49.90625 16.4375 C 50.148438 15.9375 49.9375 15.335938 49.4375 15.09375 L 25.4375 3.09375 C 25.261719 3.007813 25.066406 2.976563 24.875 3 Z M 14 16.03125 C 10.246094 16.03125 7.382813 16.792969 5.4375 17.5625 C 3.492188 18.332031 2.40625 19.15625 2.40625 19.15625 C 2.175781 19.335938 2.039063 19.613281 2.03125 19.90625 L 2.03125 41 L 2 41 L 2 45 C 2 45.550781 2.449219 46 3 46 L 20.5625 46 C 20.746094 46.265625 20.792969 46.417969 21.25 46.78125 C 22.027344 47.402344 23.277344 48 25 48 C 26.722656 48 27.972656 47.402344 28.75 46.78125 C 29.207031 46.417969 29.253906 46.265625 29.4375 46 L 47 46 C 47.550781 46 48 45.550781 48 45 L 48 41 L 47.96875 41 L 47.96875 19.90625 C 47.960938 19.613281 47.824219 19.335938 47.59375 19.15625 C 47.59375 19.15625 46.507813 18.332031 44.5625 17.5625 C 42.617188 16.792969 39.753906 16.03125 36 16.03125 C 32.246094 16.03125 29.382813 16.792969 27.4375 17.5625 C 26.226563 18.042969 25.492188 18.472656 25 18.78125 C 24.507813 18.472656 23.773438 18.042969 22.5625 17.5625 C 20.617188 16.792969 17.753906 16.03125 14 16.03125 Z M 14 17.96875 C 17.492188 17.96875 20.101563 18.683594 21.84375 19.375 C 23.332031 19.964844 23.828125 20.351563 24.03125 20.5 L 24.03125 40.375 C 23.527344 40.070313 23.535156 39.964844 22.625 39.59375 C 20.6875 38.800781 17.800781 38.03125 14 38.03125 C 10.199219 38.03125 7.3125 38.800781 5.375 39.59375 C 4.464844 39.964844 4.472656 40.070313 3.96875 40.375 L 3.96875 20.5 C 4.171875 20.351563 4.667969 19.964844 6.15625 19.375 C 7.898438 18.683594 10.507813 17.96875 14 17.96875 Z M 36 17.96875 C 39.492188 17.96875 42.101563 18.683594 43.84375 19.375 C 45.332031 19.964844 45.828125 20.351563 46.03125 20.5 L 46.03125 40.375 C 45.527344 40.070313 45.535156 39.964844 44.625 39.59375 C 42.6875 38.800781 39.800781 38.03125 36 38.03125 C 32.199219 38.03125 29.3125 38.800781 27.375 39.59375 C 26.464844 39.964844 26.472656 40.070313 25.96875 40.375 L 25.96875 20.5 C 26.171875 20.351563 26.667969 19.964844 28.15625 19.375 C 29.898438 18.683594 32.507813 17.96875 36 17.96875 Z M 14 39.96875 C 17.535156 39.96875 20.148438 40.699219 21.875 41.40625 C 23.601563 42.113281 24.375 42.75 24.375 42.75 C 24.386719 42.75 24.394531 42.75 24.40625 42.75 C 24.425781 42.773438 24.445313 42.792969 24.46875 42.8125 C 24.480469 42.8125 24.488281 42.8125 24.5 42.8125 C 24.511719 42.824219 24.519531 42.832031 24.53125 42.84375 C 24.542969 42.855469 24.550781 42.863281 24.5625 42.875 C 24.582031 42.886719 24.605469 42.898438 24.625 42.90625 C 24.636719 42.90625 24.644531 42.90625 24.65625 42.90625 C 24.675781 42.917969 24.699219 42.929688 24.71875 42.9375 C 24.730469 42.9375 24.738281 42.9375 24.75 42.9375 C 24.769531 42.9375 24.792969 42.9375 24.8125 42.9375 C 24.824219 42.949219 24.832031 42.957031 24.84375 42.96875 C 24.863281 42.96875 24.886719 42.96875 24.90625 42.96875 C 24.917969 42.96875 24.925781 42.96875 24.9375 42.96875 C 24.957031 42.96875 24.980469 42.96875 25 42.96875 C 25.019531 42.96875 25.042969 42.96875 25.0625 42.96875 C 25.171875 42.957031 25.277344 42.921875 25.375 42.875 C 25.394531 42.875 25.417969 42.875 25.4375 42.875 C 25.449219 42.863281 25.457031 42.855469 25.46875 42.84375 C 25.480469 42.84375 25.488281 42.84375 25.5 42.84375 C 25.542969 42.816406 25.585938 42.785156 25.625 42.75 C 25.625 42.75 26.398438 42.113281 28.125 41.40625 C 29.851563 40.699219 32.464844 39.96875 36 39.96875 C 39.535156 39.96875 42.148438 40.699219 43.875 41.40625 C 45.0625 41.890625 45.65625 42.265625 46 42.5 L 46 44 L 29 44 C 28.613281 43.996094 28.261719 44.214844 28.09375 44.5625 C 28.09375 44.5625 27.972656 44.839844 27.5 45.21875 C 27.027344 45.597656 26.277344 46 25 46 C 23.722656 46 22.972656 45.597656 22.5 45.21875 C 22.027344 44.839844 21.90625 44.5625 21.90625 44.5625 C 21.738281 44.214844 21.386719 43.996094 21 44 L 4 44 L 4 42.5 C 4.34375 42.265625 4.9375 41.890625 6.125 41.40625 C 7.851563 40.699219 10.464844 39.96875 14 39.96875 Z "/>
</g>
</svg>
